<?xml version="1.0" encoding="UTF-8" standalone="no"?>
<!DOCTYPE svg PUBLIC "-//W3C//DTD SVG 1.1//EN" "http://www.w3.org/Graphics/SVG/1.1/DTD/svg11.dtd">
<svg width="100%" height="100%" viewBox="0 0 173 161" version="1.1" xmlns="http://www.w3.org/2000/svg" xmlns:xlink="http://www.w3.org/1999/xlink" xml:space="preserve" xmlns:serif="http://www.serif.com/" style="fill-rule:evenodd;clip-rule:evenodd;stroke-linecap:round;stroke-linejoin:round;stroke-miterlimit:1.5;">
    <g transform="matrix(1,0,0,1,-2459.67,-6087.33)">
        <g transform="matrix(1.3918,0,0,15.3588,2132.05,2731.62)">
            <g transform="matrix(0.802835,0,0,0.802835,58.3144,41.374)">
                <g transform="matrix(0.811236,0,0,0.06892,-981.13,-201.614)">
                    <path d="M1592.29,6126.3C1614.43,6126.3 1632.4,6144.27 1632.4,6166.41C1632.4,6188.55 1614.43,6206.52 1592.29,6206.52C1570.15,6206.52 1552.17,6188.55 1552.17,6166.41C1552.17,6144.27 1570.15,6126.3 1592.29,6126.3ZM1592.29,6134.53C1610.03,6134.53 1624.68,6148.66 1624.68,6166.41C1624.68,6184.15 1610.03,6198.29 1592.29,6198.29C1574.54,6198.29 1559.89,6184.15 1559.89,6166.41C1559.89,6148.66 1574.54,6134.53 1592.29,6134.53Z" style="fill:rgb(0,6,60);"/>
                </g>
                <g transform="matrix(0.0641369,0,0,0.00544886,187.48,195.543)">
                    <circle cx="1592.29" cy="6166.41" r="40.114" style="fill:rgb(5,7,36);"/>
                    <path d="M1592.29,6126.3C1614.43,6126.3 1632.4,6144.27 1632.4,6166.41C1632.4,6188.55 1614.43,6206.52 1592.29,6206.52C1570.15,6206.52 1552.17,6188.55 1552.17,6166.41C1552.17,6144.27 1570.15,6126.3 1592.29,6126.3ZM1592.29,6141.18C1606.49,6141.18 1618.45,6152.21 1618.45,6166.41C1618.45,6180.61 1606.49,6191.64 1592.29,6191.64C1578.09,6191.64 1566.13,6180.61 1566.13,6166.41C1566.13,6152.21 1578.09,6141.18 1592.29,6141.18Z" style="fill:rgb(0,6,60);"/>
                </g>
                <g transform="matrix(0.718495,0,0,0.0651092,-819.845,-177.854)">
                    <path d="M1520.93,6284.38C1520.13,6284.32 1528.23,6278.46 1528.23,6278.46C1528.23,6278.46 1532.94,6274.13 1544.62,6274.99C1556.3,6275.85 1599.34,6274.42 1599.34,6274.42C1599.34,6274.42 1610.2,6272.84 1616.46,6267.16C1622.72,6261.47 1647.52,6235.03 1654.04,6225.37C1655.77,6222.81 1661.67,6214.49 1655.61,6209.22C1649.82,6204.18 1642.06,6204.02 1637.63,6208.9C1634.02,6212.87 1609.98,6235.73 1609.98,6235.73" style="fill:none;stroke:rgb(0,6,60);stroke-width:8.72px;"/>
                </g>
                <g transform="matrix(0.718495,0,0,0.0651092,-819.845,-177.854)">
                    <path d="M1483.07,6249.52C1483.07,6249.52 1490.74,6236.57 1500.45,6231.82C1510.16,6227.08 1522.76,6223.7 1532.97,6225.05C1543.18,6226.39 1548.44,6228.77 1548.44,6228.77C1548.44,6228.77 1585.21,6227.74 1595.23,6228.29C1597.23,6228.4 1607.28,6231.55 1608.05,6239.19C1608.66,6245.2 1607.14,6251.07 1587.28,6251.39C1566.82,6251.72 1559.36,6251.66 1559.36,6251.66" style="fill:none;stroke:rgb(0,6,60);stroke-width:8.72px;"/>
                </g>
                <g transform="matrix(0.590935,-0.0583738,0.836256,0.0693259,-5912.85,-112.65)">
                    <path d="M1574.47,6252.76C1574.51,6250.04 1571.85,6247.76 1568.35,6247.5C1558.64,6246.79 1540.94,6245.49 1540.94,6245.49L1539.81,6291.15C1539.81,6291.15 1556.77,6291.91 1566.73,6292.36C1568.58,6292.45 1570.39,6291.94 1571.75,6290.97C1573.1,6290 1573.88,6288.64 1573.9,6287.21C1574.05,6278.38 1574.33,6261.14 1574.47,6252.76ZM1567.3,6252.98L1566.74,6286.83L1547.11,6285.94C1547.11,6285.94 1547.96,6251.56 1547.96,6251.56L1567.3,6252.98Z" style="fill:rgb(0,6,60);"/>
                </g>
                <g transform="matrix(0.718495,0,0,0.0651092,-819.845,-177.854)">
                    <path d="M1572.25,6145.03C1572.25,6145.03 1572.02,6137.88 1571.98,6137.38" style="fill:none;stroke:rgb(0,6,60);stroke-width:9.11px;"/>
                </g>
                <g transform="matrix(0.718495,0,0,0.0651092,-819.845,-177.854)">
                    <path d="M1580.94,6149.63C1580.94,6149.63 1577.2,6147.13 1575.04,6146.69C1572.22,6146.13 1568.3,6146.69 1566.21,6148.42C1563.8,6150.4 1562.7,6156.84 1566.44,6159.51C1568.36,6160.88 1571.15,6161.07 1572.9,6160.98C1578.55,6160.7 1580.29,6164.3 1580.76,6167.06C1580.96,6168.28 1581.05,6171.37 1578.5,6173.78C1577.86,6174.39 1575.7,6176.04 1572.22,6176.05C1569.02,6176.05 1565.22,6173.87 1564.49,6172.94" style="fill:none;stroke:rgb(0,6,60);stroke-width:9.11px;"/>
                </g>
                <g transform="matrix(0.718495,0,0,0.0651092,-819.845,-175.316)">
                    <path d="M1572.25,6145.03C1572.25,6145.03 1572.02,6137.88 1571.98,6137.38" style="fill:none;stroke:rgb(0,6,60);stroke-width:9.11px;"/>
                </g>
            </g>
        </g>
    </g>
</svg>
