<?xml version="1.0" encoding="UTF-8" standalone="no"?>
<!DOCTYPE svg PUBLIC "-//W3C//DTD SVG 1.1//EN" "http://www.w3.org/Graphics/SVG/1.1/DTD/svg11.dtd">
<svg width="100%" height="100%" viewBox="0 0 158 134" version="1.1" xmlns="http://www.w3.org/2000/svg" xmlns:xlink="http://www.w3.org/1999/xlink" xml:space="preserve" xmlns:serif="http://www.serif.com/" style="fill-rule:evenodd;clip-rule:evenodd;stroke-linejoin:round;stroke-miterlimit:2;">
    <g transform="matrix(1,0,0,1,-1869.26,-6105.24)">
        <g transform="matrix(1,0,0,5.62722,990.989,4811.19)">
            <g transform="matrix(1.25877,0,0,0.206168,-263.25,-1032.35)">
                <path d="M1009.86,6220.78C1012.92,6220.78 1015.41,6223.27 1015.41,6226.33C1015.41,6229.4 1012.92,6231.89 1009.86,6231.89C1006.79,6231.89 1004.3,6229.4 1004.3,6226.33C1004.3,6223.27 1006.79,6220.78 1009.86,6220.78ZM1009.86,6225.32C1010.53,6225.32 1011.23,6225.66 1011.23,6226.33C1011.23,6227.01 1010.53,6227.35 1009.86,6227.35C1009.19,6227.35 1008.49,6227.01 1008.49,6226.33C1008.49,6225.66 1009.19,6225.32 1009.86,6225.32Z" style="fill:rgb(0,6,60);"/>
            </g>
            <g transform="matrix(1.25877,0,0,0.206168,-288.444,-1032.35)">
                <path d="M1009.86,6220.78C1012.92,6220.78 1015.41,6223.27 1015.41,6226.33C1015.41,6229.4 1012.92,6231.89 1009.86,6231.89C1006.79,6231.89 1004.3,6229.4 1004.3,6226.33C1004.3,6223.27 1006.79,6220.78 1009.86,6220.78ZM1009.86,6225.32C1010.53,6225.32 1011.23,6225.66 1011.23,6226.33C1011.23,6227.01 1010.53,6227.35 1009.86,6227.35C1009.19,6227.35 1008.49,6227.01 1008.49,6226.33C1008.49,6225.66 1009.19,6225.32 1009.86,6225.32Z" style="fill:rgb(0,6,60);"/>
            </g>
            <g transform="matrix(1.25877,0,0,0.206168,-313.637,-1032.35)">
                <path d="M1009.86,6220.78C1012.92,6220.78 1015.41,6223.27 1015.41,6226.33C1015.41,6229.4 1012.92,6231.89 1009.86,6231.89C1006.79,6231.89 1004.3,6229.4 1004.3,6226.33C1004.3,6223.27 1006.79,6220.78 1009.86,6220.78ZM1009.86,6225.32C1010.53,6225.32 1011.23,6225.66 1011.23,6226.33C1011.23,6227.01 1010.53,6227.35 1009.86,6227.35C1009.19,6227.35 1008.49,6227.01 1008.49,6226.33C1008.49,6225.66 1009.19,6225.32 1009.86,6225.32Z" style="fill:rgb(0,6,60);"/>
            </g>
            <g transform="matrix(1.25877,0,0,0.206168,-338.831,-1032.35)">
                <path d="M1009.86,6220.78C1012.92,6220.78 1015.41,6223.27 1015.41,6226.33C1015.41,6229.4 1012.92,6231.89 1009.86,6231.89C1006.79,6231.89 1004.3,6229.4 1004.3,6226.33C1004.3,6223.27 1006.79,6220.78 1009.86,6220.78ZM1009.86,6225.32C1010.53,6225.32 1011.23,6225.66 1011.23,6226.33C1011.23,6227.01 1010.53,6227.35 1009.86,6227.35C1009.19,6227.35 1008.49,6227.01 1008.49,6226.33C1008.49,6225.66 1009.19,6225.32 1009.86,6225.32Z" style="fill:rgb(0,6,60);"/>
            </g>
            <g transform="matrix(1.25877,0,0,0.206168,-364.024,-1032.35)">
                <path d="M1009.86,6220.78C1012.92,6220.78 1015.41,6223.27 1015.41,6226.33C1015.41,6229.4 1012.92,6231.89 1009.86,6231.89C1006.79,6231.89 1004.3,6229.4 1004.3,6226.33C1004.3,6223.27 1006.79,6220.78 1009.86,6220.78ZM1009.86,6225.32C1010.53,6225.32 1011.23,6225.66 1011.23,6226.33C1011.23,6227.01 1010.53,6227.35 1009.86,6227.35C1009.19,6227.35 1008.49,6227.01 1008.49,6226.33C1008.49,6225.66 1009.19,6225.32 1009.86,6225.32Z" style="fill:rgb(0,6,60);"/>
            </g>
            <g transform="matrix(1.07506,0,0,0.197331,-72.6682,-977.184)">
                <path d="M1031.27,6225.76C1031.27,6219.06 1025.65,6213.63 1018.73,6213.63C991.156,6213.63 925.484,6213.63 897.907,6213.63C890.985,6213.63 885.374,6219.06 885.374,6225.76C885.374,6225.77 885.374,6225.77 885.374,6225.77C885.374,6232.47 890.985,6237.9 897.907,6237.9C925.484,6237.9 991.156,6237.9 1018.73,6237.9C1025.65,6237.9 1031.27,6232.47 1031.27,6225.77C1031.27,6225.77 1031.27,6225.77 1031.27,6225.76ZM1026.37,6225.76L1026.37,6225.77C1026.37,6229.85 1022.95,6233.16 1018.73,6233.16C991.156,6233.16 925.484,6233.16 897.907,6233.16C893.692,6233.16 890.275,6229.85 890.275,6225.77C890.275,6225.77 890.275,6225.76 890.275,6225.76C890.275,6221.68 893.692,6218.38 897.907,6218.38C925.484,6218.38 991.156,6218.38 1018.73,6218.38C1022.95,6218.38 1026.37,6221.68 1026.37,6225.76Z" style="fill:rgb(0,6,60);"/>
            </g>
            <g transform="matrix(0.184811,0,0,0.174223,809.399,-837.225)">
                <path d="M1031.27,6215.4C1031.27,6214.93 1030.28,6214.48 1028.51,6214.15C1026.75,6213.82 1024.36,6213.63 1021.86,6213.63C995.508,6213.63 921.132,6213.63 894.777,6213.63C892.283,6213.63 889.891,6213.82 888.128,6214.15C886.365,6214.48 885.374,6214.93 885.374,6215.4C885.374,6220.99 885.374,6237.9 885.374,6237.9L1031.27,6237.9L1031.27,6215.4ZM913.88,6219L1002.76,6219L1002.76,6232.53C1002.76,6232.53 913.88,6232.53 913.88,6232.53L913.88,6219Z" style="fill:rgb(0,6,60);"/>
            </g>
            <g transform="matrix(0.182693,0,0,0.174223,834.227,-837.225)">
                <path d="M1031.27,6215.4C1031.27,6214.93 1030.26,6214.48 1028.48,6214.15C1026.7,6213.82 1024.28,6213.63 1021.75,6213.63C995.34,6213.63 921.301,6213.63 894.886,6213.63C892.363,6213.63 889.944,6213.82 888.16,6214.15C886.376,6214.48 885.374,6214.93 885.374,6215.4C885.374,6220.99 885.374,6237.9 885.374,6237.9L1031.27,6237.9L1031.27,6215.4ZM1002.43,6219L1002.43,6232.53C1002.43,6232.53 914.211,6232.53 914.211,6232.53L914.211,6219L1002.43,6219Z" style="fill:rgb(0,6,60);"/>
            </g>
            <g transform="matrix(0.182693,0,0,0.174223,826.565,-840.96)">
                <path d="M1031.27,6215.4C1031.27,6214.93 1030.26,6214.48 1028.48,6214.15C1026.7,6213.82 1024.28,6213.63 1021.75,6213.63C995.34,6213.63 921.301,6213.63 894.886,6213.63C892.363,6213.63 889.944,6213.82 888.16,6214.15C886.376,6214.48 885.374,6214.93 885.374,6215.4C885.374,6220.99 885.374,6237.9 885.374,6237.9L1031.27,6237.9L1031.27,6215.4ZM1002.43,6219L1002.43,6232.53C1002.43,6232.53 914.211,6232.53 914.211,6232.53L914.211,6219L1002.43,6219Z" style="fill:rgb(0,6,60);"/>
            </g>
            <g transform="matrix(0.88982,0,0,0.144302,92.3251,-649.669)">
                <path d="M943.765,6125.95C960.919,6125.95 974.846,6139.88 974.846,6157.03C974.846,6174.19 960.919,6188.11 943.765,6188.11C926.611,6188.11 912.684,6174.19 912.684,6157.03C912.684,6139.88 926.611,6125.95 943.765,6125.95ZM943.765,6132.44C957.51,6132.44 968.925,6143.29 968.925,6157.03C968.925,6170.78 957.51,6181.62 943.765,6181.62C930.02,6181.62 918.605,6170.78 918.605,6157.03C918.605,6143.29 930.02,6132.44 943.765,6132.44Z" style="fill:rgb(0,6,60);"/>
            </g>
            <g transform="matrix(0.62495,0,0,0.100856,342.395,-382.168)">
                <path d="M943.765,6125.95C960.919,6125.95 974.846,6139.88 974.846,6157.03C974.846,6174.19 960.919,6188.11 943.765,6188.11C926.611,6188.11 912.684,6174.19 912.684,6157.03C912.684,6139.88 926.611,6125.95 943.765,6125.95ZM943.765,6135.23C956.056,6135.23 966.416,6144.74 966.416,6157.03C966.416,6169.32 956.056,6178.83 943.765,6178.83C931.474,6178.83 921.114,6169.32 921.114,6157.03C921.114,6144.74 931.474,6135.23 943.765,6135.23Z" style="fill:rgb(0,6,60);"/>
            </g>
            <g transform="matrix(0.862752,-0.000354572,0.00184038,0.141417,99.4928,-625.636)">
                <path d="M964.16,6053.77C956.127,6052.17 947.859,6052.17 939.826,6053.77L939.826,6075.05C937.254,6075.83 934.765,6076.86 932.391,6078.13L917.345,6063.08C910.535,6067.63 904.688,6073.48 900.138,6080.29L915.185,6095.33C913.921,6097.71 912.89,6100.19 912.105,6102.77L890.826,6102.77C889.228,6110.8 889.228,6119.07 890.826,6127.1L912.105,6127.1C912.89,6129.67 913.921,6132.16 915.185,6134.54L900.138,6149.58C904.688,6156.39 910.535,6162.24 917.345,6166.79L932.391,6151.74C934.765,6153.01 937.254,6154.04 939.826,6154.82L939.826,6176.1C947.859,6177.7 956.127,6177.7 964.16,6176.1L964.16,6154.82C966.732,6154.04 969.222,6153.01 971.595,6151.74L986.642,6166.79C993.451,6162.24 999.298,6156.39 1003.85,6149.58L988.802,6134.54C990.065,6132.16 991.097,6129.67 991.881,6127.1L1013.16,6127.1C1014.76,6119.07 1014.76,6110.8 1013.16,6102.77L991.881,6102.77C991.097,6100.19 990.065,6097.71 988.802,6095.33L1003.85,6080.29C999.298,6073.48 993.451,6067.63 986.642,6063.08L971.595,6078.13C969.222,6076.86 966.732,6075.83 964.16,6075.05L964.16,6053.77ZM958.054,6059.51L958.054,6075.05C958.054,6078.01 959.873,6080.62 962.506,6081.42C964.719,6082.09 966.861,6082.98 968.903,6084.07C971.167,6085.27 973.881,6084.85 975.735,6082.99L987.237,6071.49C990.27,6073.91 993.043,6076.63 995.513,6079.61C995.513,6079.61 984.661,6090.47 984.661,6090.47C982.562,6092.57 982.086,6095.96 983.513,6098.64C984.568,6100.62 985.429,6102.7 986.084,6104.85C986.911,6107.56 989.248,6109.39 991.881,6109.39L1007.97,6109.39C1008.35,6113.08 1008.35,6116.79 1007.97,6120.48C1007.97,6120.48 991.881,6120.48 991.881,6120.48C989.248,6120.48 986.911,6122.31 986.084,6125.02C985.429,6127.17 984.568,6129.25 983.513,6131.23C982.086,6133.91 982.562,6137.3 984.661,6139.4L995.513,6150.25C993.043,6153.24 990.27,6155.96 987.237,6158.38C987.237,6158.38 975.735,6146.88 975.735,6146.88C973.881,6145.02 971.167,6144.6 968.903,6145.8C966.861,6146.89 964.719,6147.78 962.506,6148.45C959.873,6149.25 958.054,6151.86 958.054,6154.82L958.054,6170.36C954.025,6170.79 949.961,6170.79 945.933,6170.36C945.933,6170.36 945.933,6154.82 945.933,6154.82C945.933,6151.86 944.113,6149.25 941.48,6148.45C939.268,6147.78 937.125,6146.89 935.084,6145.8C932.82,6144.6 930.105,6145.02 928.251,6146.88L916.749,6158.38C913.717,6155.96 910.943,6153.24 908.474,6150.25C908.474,6150.25 919.325,6139.4 919.325,6139.4C921.424,6137.3 921.901,6133.91 920.473,6131.23C919.418,6129.25 918.557,6127.17 917.903,6125.02C917.076,6122.31 914.739,6120.48 912.105,6120.48L896.013,6120.48C895.641,6116.79 895.641,6113.08 896.013,6109.39C896.013,6109.39 912.105,6109.39 912.105,6109.39C914.739,6109.39 917.076,6107.56 917.903,6104.85C918.557,6102.7 919.418,6100.62 920.473,6098.64C921.901,6095.96 921.424,6092.57 919.325,6090.47L908.474,6079.61C910.943,6076.63 913.717,6073.91 916.749,6071.49C916.749,6071.49 928.251,6082.99 928.251,6082.99C930.105,6084.85 932.82,6085.27 935.084,6084.07C937.125,6082.98 939.268,6082.09 941.48,6081.42C944.113,6080.62 945.933,6078.01 945.933,6075.05L945.933,6059.51C949.961,6059.08 954.025,6059.08 958.054,6059.51L958.054,6059.51Z" style="fill:rgb(0,6,60);"/>
            </g>
        </g>
    </g>
</svg>
